<svg width="1344" height="285" viewBox="0 0 1344 285" fill="none" xmlns="http://www.w3.org/2000/svg">
<path d="M362.831 179.531V193.175H343.039V74.4928H363.192V118.76V119.26H363.692H364.571H364.88L365.018 118.984C366.093 116.845 367.605 114.54 369.573 112.091C371.506 109.684 374.143 107.593 377.476 105.848C380.778 104.126 385.01 103.243 390.212 103.243C397.057 103.243 403.221 104.979 408.73 108.456C414.231 111.929 418.604 117.05 421.862 123.848C425.114 130.644 426.752 138.991 426.752 148.909C426.752 158.714 425.147 167.018 421.95 173.826C418.748 180.646 414.408 185.836 408.927 189.399C403.443 192.963 397.224 194.754 390.268 194.754C385.179 194.754 381 193.905 377.696 192.236C374.352 190.547 371.703 188.511 369.701 186.135C367.678 183.719 366.111 181.438 365.004 179.301L364.864 179.031H364.56H363.331H362.831V179.531ZM403.737 163.96L403.738 163.958C405.374 159.506 406.193 154.449 406.193 148.796C406.193 143.177 405.386 138.165 403.772 133.78L403.771 133.779C402.143 129.386 399.725 125.909 396.484 123.384C393.223 120.845 389.174 119.602 384.371 119.602C379.758 119.602 375.814 120.812 372.558 123.267C369.314 125.712 366.883 129.123 365.231 133.482L365.231 133.483C363.593 137.838 362.775 142.953 362.775 148.796C362.775 154.65 363.604 159.8 365.288 164.223C366.972 168.658 369.412 172.134 372.631 174.636C375.864 177.149 379.787 178.396 384.36 178.396C389.133 178.396 393.161 177.116 396.42 174.52C399.66 171.939 402.088 168.407 403.737 163.96Z" fill="white" stroke="white"/>
<path d="M500.522 174.098C502.32 172.411 503.701 170.346 504.658 167.901L523.45 170.016C522.186 174.93 519.912 179.217 516.597 182.896L516.597 182.897C513.171 186.712 508.784 189.671 503.436 191.766L503.435 191.767C498.092 193.882 491.955 194.935 485.037 194.935C476.11 194.935 468.442 193.066 462.002 189.362C455.561 185.656 450.622 180.383 447.157 173.553C443.693 166.722 441.957 158.648 441.957 149.315C441.957 140.141 443.704 132.111 447.192 125.2C450.682 118.284 455.547 112.897 461.823 109.034L461.824 109.034C468.082 105.176 475.452 103.232 483.943 103.232C489.413 103.232 494.588 104.114 499.458 105.864C504.317 107.611 508.62 110.313 512.369 113.963C516.109 117.605 519.06 122.244 521.215 127.893C523.364 133.53 524.452 140.257 524.452 148.085V154.071H462.941C462.941 154.061 462.941 154.051 462.941 154.041V141.591C462.943 141.33 462.949 141.071 462.959 140.814H504.678H505.183L505.178 140.31C505.144 136.189 504.248 132.486 502.491 129.237C500.735 125.989 498.282 123.419 495.149 121.534L495.148 121.534C492.005 119.654 488.363 118.711 484.225 118.711C479.823 118.711 475.927 119.77 472.568 121.913C469.227 124.045 466.619 126.838 464.774 130.276C463.189 133.22 462.27 136.399 462.014 139.814H451.391H450.891V140.314V154.571V155.071H451.391H461.953C462.072 159.917 463.038 164.121 464.86 167.679C466.807 171.483 469.545 174.398 473.061 176.423C476.576 178.447 480.679 179.445 485.341 179.445C488.467 179.445 491.309 178.998 493.863 178.097C496.414 177.196 498.641 175.875 500.522 174.098ZM500.522 174.098C500.522 174.098 500.522 174.098 500.522 174.098L500.18 173.734L500.523 174.097C500.523 174.097 500.522 174.098 500.522 174.098ZM461.941 154.041C461.941 154.051 461.941 154.061 461.941 154.071H451.891V140.814H461.958C461.949 141.069 461.943 141.326 461.941 141.584V141.588V154.041Z" fill="white" stroke="white"/>
<path d="M575.469 154.797C572.281 155.23 569.422 155.938 566.886 156.936C564.332 157.931 562.283 159.329 560.787 161.144C559.255 162.988 558.507 165.341 558.507 168.151C558.507 172.182 559.989 175.289 562.983 177.381L562.984 177.381C565.94 179.438 569.666 180.449 574.139 180.449C578.445 180.449 582.218 179.589 585.416 177.85C588.6 176.119 591.081 173.804 592.822 170.913C594.561 168.026 595.431 164.88 595.431 161.485V150.905V149.853L594.615 150.517C594.028 150.995 592.989 151.48 591.427 151.949C589.87 152.416 588.131 152.818 586.194 153.165C584.248 153.514 582.326 153.828 580.428 154.098C580.147 154.138 579.871 154.177 579.601 154.216C578.039 154.438 576.66 154.634 575.469 154.797ZM575.469 154.797C575.469 154.797 575.47 154.797 575.47 154.797L575.537 155.292M575.469 154.797C575.469 154.797 575.469 154.797 575.469 154.797L575.537 155.292M575.537 155.292C576.729 155.129 578.11 154.933 579.673 154.71C579.943 154.672 580.218 154.633 580.498 154.593C582.404 154.322 584.332 154.007 586.282 153.657C588.233 153.307 589.992 152.901 591.571 152.428C592.805 152.057 593.756 151.666 594.431 151.254L561.172 161.462C562.604 159.725 564.577 158.372 567.069 157.402C569.561 156.42 572.38 155.721 575.537 155.292ZM615.561 133.592V193.175H596.197V181.347V180.847H595.697H594.998H594.694L594.554 181.118C593.298 183.554 591.531 185.843 589.257 187.963L589.256 187.963C586.989 190.077 584.15 191.782 580.718 193.06L580.716 193.061C577.29 194.354 573.283 194.991 568.648 194.991C563.026 194.991 557.978 193.976 553.518 191.967C549.069 189.964 545.559 186.991 542.986 183.059C540.423 179.141 539.121 174.301 539.121 168.489C539.121 163.483 540.046 159.39 541.864 156.17C543.694 152.927 546.183 150.339 549.346 148.399C552.535 146.442 556.141 144.949 560.168 143.923C564.213 142.891 568.406 142.151 572.748 141.68C578.004 141.138 582.284 140.641 585.561 140.189C588.851 139.735 591.329 139.024 592.922 138.006C594.586 136.942 595.408 135.282 595.408 133.118V132.768C595.408 128.266 594.066 124.701 591.335 122.171C588.608 119.644 584.702 118.417 579.72 118.417C574.477 118.417 570.255 119.56 567.119 121.912C564.156 124.124 562.105 126.746 560.974 129.768L542.206 127.098C543.755 121.954 546.233 117.645 549.634 114.157C553.164 110.538 557.472 107.803 562.592 105.978L562.592 105.977C567.706 104.149 573.376 103.232 579.596 103.232C583.875 103.232 588.144 103.735 592.391 104.741C596.621 105.743 600.48 107.39 603.982 109.67C607.449 111.945 610.246 115.028 612.375 118.931C614.489 122.808 615.561 127.694 615.561 133.592Z" fill="white" stroke="white"/>
<path d="M669.55 139.718L669.55 139.718C664.974 138.653 661.61 137.289 659.556 135.577C657.477 133.844 656.456 131.569 656.49 128.821C656.444 125.585 658.038 122.957 661.129 120.978C664.204 119.009 668.001 118.034 672.471 118.034C675.793 118.034 678.643 118.572 680.981 119.66C683.298 120.737 685.168 122.171 686.565 123.956C687.85 125.597 688.788 127.347 689.363 129.214L707.687 127.21C706.206 119.933 702.553 114.164 696.754 109.867C690.813 105.474 682.643 103.243 672.189 103.243C665.081 103.243 658.822 104.352 653.425 106.567L653.424 106.567C648.015 108.772 643.831 111.879 640.838 115.868L640.837 115.868C637.842 119.845 636.361 124.529 636.405 129.967L636.405 129.974H636.405C636.361 136.4 638.372 141.683 642.398 145.843L642.399 145.843C646.429 150.018 652.691 153.009 661.242 154.792L661.242 154.792L676.554 158.006L676.557 158.007C680.72 158.906 683.857 160.215 685.92 161.973C688.004 163.748 689.05 166.007 689.05 168.726C689.05 171.974 687.4 174.664 684.242 176.798M669.55 139.718L684.871 142.991C693.314 144.808 699.538 147.689 703.584 151.57L703.584 151.571C707.623 155.435 709.676 160.509 709.71 166.808C709.665 172.356 708.062 177.223 704.873 181.44L704.872 181.441C701.686 185.668 697.253 188.979 691.559 191.364C685.869 193.748 679.307 194.946 671.885 194.946C660.97 194.946 652.238 192.648 645.649 188.109C639.21 183.674 635.32 177.53 633.97 169.646L653.63 167.754C654.629 171.699 656.644 174.728 659.698 176.798C662.836 178.934 666.901 179.986 671.84 179.986C676.933 179.986 681.078 178.947 684.242 176.798M669.55 139.718L669.559 139.72L684.871 142.991L669.55 139.718ZM684.242 176.798C684.241 176.798 684.241 176.799 684.241 176.799L683.961 176.384L684.242 176.798C684.242 176.798 684.242 176.798 684.242 176.798Z" fill="white" stroke="white"/>
<path d="M771.995 119.782H755.293V104.416H771.995V119.782ZM734.129 170.192V120.782H754.293V166.684C754.293 169.565 754.736 171.845 755.681 173.457C756.609 175.04 757.843 176.152 759.409 176.74C760.914 177.304 762.575 177.595 764.377 177.595C765.722 177.595 766.968 177.491 768.115 177.294C768.95 177.151 769.642 177.013 770.188 176.884L773.547 192.475C772.476 192.822 771.026 193.199 769.196 193.604C767.15 194.058 764.646 194.338 761.669 194.416L761.667 194.416C756.429 194.572 751.731 193.769 747.555 192.029C743.394 190.296 740.113 187.596 737.7 183.948C735.297 180.304 734.096 175.738 734.129 170.195V170.192ZM754.293 82.907V103.416H734.129V82.907H754.293ZM721.41 104.416H733.129V119.782H721.41V104.416ZM754.293 119.782H734.129V104.416H754.293V119.782Z" fill="white" stroke="white"/>
<path d="M797.56 87.5503C796.546 87.5503 795.666 87.178 794.933 86.4449C794.189 85.7005 793.828 84.832 793.828 83.8169C793.828 82.8018 794.2 81.922 794.933 81.1889C795.677 80.4444 796.546 80.0835 797.56 80.0835C798.575 80.0835 799.443 80.4557 800.187 81.1889C800.932 81.9333 801.292 82.8018 801.292 83.8169C801.292 84.832 800.92 85.7118 800.187 86.4449C799.443 87.178 798.564 87.5503 797.56 87.5503ZM795.689 193.686V103.916H799.432V193.686H795.689Z" fill="white" stroke="white" stroke-width="3" stroke-miterlimit="10"/>
<path d="M835.411 133.366V193.687H831.668V103.916H835.411V118.173H835.885C837.993 113.492 841.444 109.759 846.258 106.95C851.073 104.142 856.575 102.743 862.766 102.743C868.764 102.743 874.064 104.052 878.653 106.657C883.253 109.263 886.85 112.872 889.466 117.474C892.071 122.076 893.378 127.365 893.378 133.366V193.687H889.635V133.366C889.635 125.414 887.143 118.951 882.159 113.966C877.176 108.981 870.704 106.488 862.766 106.488C857.466 106.488 852.764 107.638 848.66 109.939C844.545 112.24 841.32 115.41 838.963 119.47C836.595 123.508 835.411 128.144 835.411 133.366Z" fill="white" stroke="white" stroke-width="3" stroke-miterlimit="10"/>
<path d="M978.913 122.854L975.169 123.79C973.963 119.899 972.271 116.65 970.118 114.056C967.953 111.462 965.314 109.522 962.202 108.214C959.09 106.905 955.46 106.251 951.333 106.251C944.162 106.251 938.366 108.078 933.924 111.721C929.481 115.365 927.26 120.169 927.26 126.125C927.26 130.839 928.771 134.798 931.793 137.99C934.814 141.182 939.381 143.54 945.492 145.062L959.519 148.57C966.104 150.206 971.099 152.969 974.504 156.872C977.909 160.774 979.612 165.477 979.612 171.016C979.612 175.888 978.338 180.174 975.789 183.874C973.241 187.573 969.723 190.449 965.247 192.491C960.77 194.532 955.584 195.559 949.709 195.559C941.726 195.559 935.198 193.608 930.135 189.716C925.072 185.825 921.78 180.287 920.258 173.113L924.001 172.177C925.32 178.527 928.162 183.389 932.503 186.761C936.844 190.134 942.583 191.814 949.709 191.814C957.501 191.814 963.804 189.908 968.641 186.084C973.467 182.272 975.88 177.242 975.88 171.004C975.88 166.369 974.436 162.455 971.561 159.251C968.675 156.059 964.356 153.736 958.594 152.292L944.568 148.784C937.678 147.07 932.447 144.262 928.883 140.37C925.32 136.479 923.539 131.719 923.539 126.113C923.539 121.399 924.712 117.282 927.068 113.752C929.425 110.221 932.695 107.469 936.889 105.484C941.072 103.499 945.898 102.506 951.355 102.506C958.29 102.506 964.074 104.209 968.708 107.616C973.32 111.033 976.725 116.109 978.913 122.854Z" fill="white" stroke="white" stroke-width="3" stroke-miterlimit="10"/>
<path fill-rule="evenodd" clip-rule="evenodd" d="M951.358 104.006C946.083 104.006 941.483 104.965 937.534 106.839L937.533 106.84C933.56 108.72 930.51 111.301 928.318 114.584C926.144 117.841 925.041 121.66 925.041 126.113C925.041 131.371 926.699 135.762 929.992 139.357C933.298 142.968 938.233 145.662 944.932 147.329L944.934 147.329L958.96 150.837C964.906 152.327 969.528 154.765 972.676 158.245L972.679 158.249C975.82 161.749 977.382 166.028 977.382 171.004C977.382 177.692 974.765 183.16 969.573 187.261C964.407 191.344 957.749 193.314 949.711 193.314C942.353 193.314 936.259 191.577 931.585 187.946C927.277 184.599 924.39 179.916 922.885 174.003L922.055 174.211C923.629 180.397 926.642 185.138 931.051 188.527C935.792 192.171 941.975 194.059 949.711 194.059C955.411 194.059 960.379 193.063 964.626 191.126C968.88 189.186 972.176 186.478 974.556 183.023C976.917 179.595 978.114 175.611 978.114 171.016C978.114 165.814 976.526 161.468 973.376 157.858C970.227 154.25 965.539 151.61 959.159 150.026L945.132 146.518C938.857 144.954 933.992 142.493 930.705 139.022C927.399 135.529 925.762 131.192 925.762 126.125C925.762 119.74 928.17 114.502 932.975 110.562C937.745 106.649 943.904 104.751 951.335 104.751C955.618 104.751 959.453 105.43 962.786 106.831C966.117 108.231 968.951 110.315 971.272 113.095L971.274 113.098C973.315 115.557 974.942 118.534 976.158 121.997L976.963 121.796C974.852 116.05 971.784 111.761 967.82 108.823C963.493 105.643 958.038 104.006 951.358 104.006ZM936.249 104.129C940.666 102.033 945.718 101.006 951.358 101.006C958.544 101.006 964.658 102.775 969.599 106.407L969.604 106.411C974.519 110.053 978.08 115.419 980.342 122.391L980.837 123.919L974.159 125.589L973.739 124.234C972.58 120.496 970.973 117.432 968.968 115.016C966.958 112.609 964.516 110.813 961.623 109.596C958.732 108.381 955.306 107.751 951.335 107.751C944.424 107.751 938.991 109.507 934.877 112.881C930.797 116.227 928.762 120.599 928.762 126.125C928.762 130.487 930.146 134.068 932.884 136.959C935.641 139.872 939.909 142.125 945.857 143.607L959.883 147.114C966.673 148.801 971.974 151.688 975.636 155.885C979.296 160.08 981.114 165.141 981.114 171.016C981.114 176.165 979.762 180.753 977.027 184.725C974.31 188.669 970.571 191.712 965.871 193.856C961.166 196.002 955.76 197.059 949.711 197.059C941.481 197.059 934.607 195.044 929.223 190.906C923.835 186.765 920.377 180.892 918.793 173.425L918.492 172.009L925.154 170.343L925.472 171.872C926.732 177.937 929.413 182.46 933.425 185.577C937.433 188.69 942.818 190.314 949.711 190.314C957.256 190.314 963.204 188.472 967.713 184.908C972.172 181.385 974.382 176.791 974.382 171.004C974.382 166.71 973.057 163.162 970.449 160.255C967.823 157.353 963.808 155.145 958.232 153.747L944.208 150.24C944.207 150.24 944.208 150.24 944.208 150.24C937.129 148.478 931.599 145.555 927.779 141.383C923.946 137.196 922.041 132.068 922.041 126.113C922.041 121.137 923.283 116.723 925.823 112.919C928.344 109.142 931.833 106.219 936.249 104.129Z" fill="white"/>
<path d="M944.208 150.24L958.232 153.747C963.808 155.145 967.823 157.353 970.449 160.255C973.057 163.162 974.382 166.71 974.382 171.004C974.382 176.791 972.172 181.385 967.713 184.908C963.204 188.472 957.256 190.314 949.711 190.314C942.818 190.314 937.433 188.69 933.425 185.577C929.413 182.46 926.732 177.937 925.472 171.872L925.154 170.343L918.492 172.009L918.793 173.425C920.377 180.892 923.835 186.765 929.223 190.906C934.607 195.044 941.481 197.059 949.711 197.059C955.76 197.059 961.166 196.002 965.871 193.856C970.571 191.712 974.31 188.669 977.027 184.725C979.762 180.753 981.114 176.165 981.114 171.016C981.114 165.141 979.296 160.08 975.636 155.885C971.974 151.688 966.673 148.801 959.883 147.114L945.857 143.607C939.909 142.125 935.641 139.872 932.884 136.959C930.146 134.068 928.762 130.487 928.762 126.125C928.762 120.599 930.797 116.227 934.877 112.881C938.991 109.507 944.424 107.751 951.335 107.751C955.306 107.751 958.732 108.381 961.623 109.596C964.516 110.813 966.958 112.609 968.968 115.016C970.973 117.432 972.58 120.496 973.739 124.234L974.159 125.589L980.837 123.919L980.342 122.391C978.08 115.419 974.519 110.053 969.604 106.411L969.599 106.407C964.658 102.775 958.544 101.006 951.358 101.006C945.718 101.006 940.666 102.033 936.249 104.129C931.833 106.219 928.344 109.142 925.823 112.919C923.283 116.723 922.041 121.137 922.041 126.113C922.041 132.068 923.946 137.196 927.779 141.383C931.599 145.555 937.129 148.478 944.208 150.24ZM944.208 150.24C944.208 150.24 944.207 150.24 944.208 150.24ZM937.534 106.839C941.483 104.965 946.083 104.006 951.358 104.006C958.038 104.006 963.493 105.643 967.82 108.823C971.784 111.761 974.852 116.05 976.963 121.796L976.158 121.997C974.942 118.534 973.315 115.557 971.274 113.098L971.272 113.095C968.951 110.315 966.117 108.231 962.786 106.831C959.453 105.43 955.618 104.751 951.335 104.751C943.904 104.751 937.745 106.649 932.975 110.562C928.17 114.502 925.762 119.74 925.762 126.125C925.762 131.192 927.399 135.529 930.705 139.022C933.992 142.493 938.857 144.954 945.132 146.518L959.159 150.026C965.539 151.61 970.227 154.25 973.376 157.858C976.526 161.468 978.114 165.814 978.114 171.016C978.114 175.611 976.917 179.595 974.556 183.023C972.176 186.478 968.88 189.186 964.626 191.126C960.379 193.063 955.411 194.059 949.711 194.059C941.975 194.059 935.792 192.171 931.051 188.527C926.642 185.138 923.629 180.397 922.055 174.211L922.885 174.003C924.39 179.916 927.277 184.599 931.585 187.946C936.259 191.577 942.353 193.314 949.711 193.314C957.749 193.314 964.407 191.344 969.573 187.261C974.765 183.16 977.382 177.692 977.382 171.004C977.382 166.028 975.82 161.749 972.679 158.249L972.676 158.245C969.528 154.765 964.906 152.327 958.96 150.837L944.934 147.329L944.932 147.329C938.233 145.662 933.298 142.968 929.992 139.357C926.699 135.762 925.041 131.371 925.041 126.113C925.041 121.66 926.144 117.841 928.318 114.584C930.51 111.301 933.56 108.72 937.533 106.84L937.534 106.839Z" stroke="white" stroke-width="3" stroke-miterlimit="10"/>
<path d="M1008.59 87.5503C1007.58 87.5503 1006.7 87.178 1005.96 86.4449C1005.22 85.7005 1004.86 84.832 1004.86 83.8169C1004.86 82.8018 1005.23 81.922 1005.96 81.1889C1006.71 80.4444 1007.58 80.0835 1008.59 80.0835C1009.61 80.0835 1010.47 80.4557 1011.22 81.1889C1011.96 81.9333 1012.32 82.8018 1012.32 83.8169C1012.32 84.832 1011.95 85.7118 1011.22 86.4449C1010.47 87.178 1009.61 87.5503 1008.59 87.5503ZM1006.72 193.686V103.916H1010.46V193.686H1006.72Z" fill="white" stroke="white" stroke-width="3" stroke-miterlimit="10"/>
<path fill-rule="evenodd" clip-rule="evenodd" d="M1008.59 81.5835C1007.98 81.5835 1007.49 81.7795 1007.03 82.2493C1006.56 82.7103 1006.36 83.2122 1006.36 83.8169C1006.36 84.4249 1006.56 84.9146 1007.03 85.3844C1007.49 85.8454 1007.99 86.0503 1008.59 86.0503C1009.19 86.0503 1009.68 85.851 1010.16 85.3804C1010.62 84.9205 1010.82 84.4198 1010.82 83.8169C1010.82 83.2106 1010.63 82.7219 1010.16 82.2534C1009.68 81.7827 1009.19 81.5835 1008.59 81.5835ZM1004.9 80.1284C1005.92 79.1093 1007.17 78.5835 1008.59 78.5835C1010.02 78.5835 1011.26 79.1275 1012.27 80.1203L1012.28 80.1283C1013.3 81.1474 1013.82 82.3947 1013.82 83.8169C1013.82 85.2425 1013.28 86.5001 1012.28 87.5054L1012.27 87.5135C1011.26 88.5062 1010.02 89.0503 1008.59 89.0503C1007.17 89.0503 1005.91 88.5107 1004.9 87.5054C1003.88 86.4864 1003.36 85.2391 1003.36 83.8169C1003.36 82.3913 1003.9 81.1337 1004.9 80.1284ZM1005.22 102.416H1011.96V195.186H1005.22V102.416ZM1008.22 105.416V192.186H1008.96V105.416H1008.22Z" fill="white" stroke="white" stroke-width="3" stroke-miterlimit="10"/>
<path d="M1073.09 229.216C1068.06 229.216 1063.42 228.539 1059.18 227.197C1054.93 225.854 1051.28 223.847 1048.2 221.174C1045.12 218.5 1042.82 215.184 1041.31 211.214L1044.82 209.816C1046.18 213.323 1048.21 216.233 1050.93 218.557C1053.64 220.869 1056.9 222.606 1060.68 223.757C1064.48 224.907 1068.62 225.482 1073.1 225.482C1082.45 225.482 1089.73 223.023 1094.95 218.094C1100.17 213.165 1102.78 205.654 1102.78 195.559V171.241H1102.31C1100.76 176.226 1098.43 180.388 1095.36 183.716C1092.28 187.043 1088.71 189.547 1084.67 191.194C1080.62 192.852 1076.37 193.675 1071.93 193.675C1064.91 193.675 1058.81 191.792 1053.64 188.002C1048.46 184.223 1044.45 178.979 1041.61 172.279C1038.76 165.579 1037.34 157.819 1037.34 149.021C1037.34 140.133 1038.74 132.193 1041.55 125.177C1044.36 118.162 1048.35 112.635 1053.52 108.574C1058.7 104.525 1064.83 102.495 1071.93 102.495C1076.75 102.495 1081.16 103.476 1085.13 105.45C1089.1 107.413 1092.55 110.221 1095.47 113.864C1098.39 117.508 1100.67 121.827 1102.3 126.813H1102.76V103.916H1106.51V195.559C1106.51 202.924 1105.17 209.105 1102.47 214.113C1099.79 219.121 1095.94 222.888 1090.96 225.426C1085.99 227.952 1080.02 229.216 1073.09 229.216ZM1071.93 189.942C1078.16 189.942 1083.58 188.284 1088.2 184.979C1092.81 181.663 1096.39 176.937 1098.95 170.801C1101.5 164.665 1102.78 157.413 1102.78 149.033C1102.78 140.923 1101.52 133.648 1099.03 127.208C1096.54 120.756 1092.99 115.658 1088.37 111.891C1083.75 108.135 1078.26 106.251 1071.91 106.251C1065.57 106.251 1060.09 108.135 1055.46 111.891C1050.85 115.646 1047.29 120.756 1044.8 127.208C1042.3 133.659 1041.05 140.934 1041.05 149.033C1041.05 157.142 1042.3 164.259 1044.82 170.395C1047.33 176.531 1050.9 181.325 1055.51 184.776C1060.15 188.216 1065.61 189.942 1071.93 189.942Z" fill="white" stroke="white" stroke-width="3" stroke-miterlimit="10"/>
<path d="M1142.5 133.366V193.687H1138.75V73.9928H1142.5V118.173H1142.97C1145.08 113.492 1148.53 109.759 1153.34 106.95C1158.16 104.142 1163.66 102.743 1169.85 102.743C1175.85 102.743 1181.15 104.052 1185.74 106.657C1190.34 109.263 1193.94 112.872 1196.55 117.474C1199.16 122.076 1200.46 127.365 1200.46 133.366V193.687H1196.72V133.366C1196.72 125.414 1194.23 118.951 1189.25 113.966C1184.26 108.981 1177.79 106.488 1169.85 106.488C1164.55 106.488 1159.85 107.638 1155.75 109.939C1151.63 112.24 1148.41 115.41 1146.05 119.47C1143.68 123.508 1142.5 128.144 1142.5 133.366Z" fill="white" stroke="white" stroke-width="3" stroke-miterlimit="10"/>
<path d="M1260.28 103.916V107.661H1224.77V103.916H1260.28ZM1237.86 82.407H1241.6V174.749C1241.6 178.257 1242.38 181.268 1243.93 183.772C1245.49 186.287 1247.55 188.216 1250.12 189.558C1252.69 190.901 1255.46 191.577 1258.42 191.577C1259.55 191.577 1260.59 191.476 1261.55 191.284C1262.5 191.092 1263.49 190.799 1264.5 190.404L1265.67 193.912C1264.5 194.341 1263.35 194.679 1262.22 194.938C1261.1 195.187 1259.82 195.322 1258.42 195.322C1254.76 195.322 1251.36 194.487 1248.23 192.807C1245.1 191.137 1242.58 188.757 1240.7 185.678C1238.8 182.599 1237.87 178.956 1237.87 174.749V82.407H1237.86Z" fill="white" stroke="white" stroke-width="3" stroke-miterlimit="10"/>
<path d="M1341.61 122.854L1337.87 123.79C1336.66 119.899 1334.97 116.65 1332.82 114.056C1330.65 111.462 1328.01 109.522 1324.9 108.214C1321.79 106.905 1318.16 106.251 1314.03 106.251C1306.86 106.251 1301.07 108.078 1296.62 111.721C1292.18 115.365 1289.96 120.169 1289.96 126.125C1289.96 130.839 1291.47 134.798 1294.49 137.99C1297.51 141.182 1302.08 143.54 1308.19 145.062L1322.22 148.57C1328.8 150.206 1333.8 152.969 1337.2 156.872C1340.61 160.774 1342.31 165.477 1342.31 171.016C1342.31 175.888 1341.04 180.174 1338.49 183.874C1335.94 187.573 1332.42 190.449 1327.95 192.491C1323.47 194.532 1318.28 195.559 1312.41 195.559C1304.43 195.559 1297.9 193.608 1292.83 189.716C1287.77 185.825 1284.48 180.287 1282.96 173.113L1286.7 172.177C1288.02 178.527 1290.86 183.389 1295.2 186.761C1299.54 190.134 1305.28 191.814 1312.41 191.814C1320.2 191.814 1326.5 189.908 1331.34 186.084C1336.17 182.272 1338.58 177.242 1338.58 171.004C1338.58 166.369 1337.14 162.455 1334.26 159.251C1331.37 156.059 1327.06 153.736 1321.29 152.292L1307.27 148.784C1300.38 147.07 1295.15 144.262 1291.58 140.37C1288.02 136.479 1286.24 131.719 1286.24 126.113C1286.24 121.399 1287.41 117.282 1289.77 113.752C1292.12 110.221 1295.39 107.469 1299.59 105.484C1303.77 103.499 1308.6 102.506 1314.05 102.506C1320.99 102.506 1326.77 104.209 1331.41 107.616C1336.03 111.033 1339.44 116.109 1341.61 122.854Z" fill="white" stroke="white" stroke-width="3" stroke-miterlimit="10"/>
<path d="M250.045 49.0886L167.599 131.573L144.112 108.078L132.825 96.7879L120.366 84.3245L120.309 84.2681L119.52 83.4786C113.747 77.7037 104.4 77.7037 98.6268 83.4786L97.7699 84.3245L74.6101 107.514L6.25829 175.877C5.52539 176.61 4.96162 177.467 4.57825 178.358C4.5106 178.155 4.45422 177.952 4.40912 177.738V177.715C1.72556 167.282 0.225926 156.375 0.0229682 145.141C-1.37519 67.1239 61.2374 1.77285 139.241 0.0358744C183.497 -0.945406 223.288 18.2742 250.045 49.0886Z" fill="white"/>
<path d="M269.179 77.2976L191.266 155.259L179.957 166.549L173.586 172.922C170.542 175.978 165.603 175.978 162.559 172.922L97.1836 107.514L109.068 95.6261L121.527 108.09L132.837 119.38L160.867 147.42C164.588 151.142 170.621 151.142 174.342 147.42L178.886 142.874L259.9 61.834C263.316 66.7629 266.406 71.9288 269.179 77.2976Z" fill="white"/>
<path d="M98.344 131.268L17.9162 211.722C14.9056 206.297 12.2221 200.646 9.92188 194.803L17.3749 187.348C17.172 187.551 16.969 187.709 16.7548 187.878L85.862 118.76L85.8959 118.793L98.344 131.268Z" fill="white"/>
<path d="M109.066 95.6262L97.1818 107.514L97.1367 107.48L109.032 95.5698L109.066 95.6262Z" fill="white"/>
<path d="M85.895 118.805L17.3741 187.348C17.1711 187.551 16.9681 187.709 16.7539 187.878L85.8611 118.76L85.895 118.805Z" fill="white"/>
<path d="M109.066 95.6262L97.1818 107.514L97.1367 107.48L109.032 95.5698L109.066 95.6262Z" fill="white"/>
<path d="M284.91 145.277C283.467 220.689 222.376 282.588 147 284.923C97.4557 286.457 53.3687 262.669 26.6797 225.55L109.656 142.57L156.866 189.795C163.079 196.01 173.125 196.01 179.327 189.795L179.383 189.739L191.267 177.828L202.554 166.538L276.081 92.9868C282.114 109.24 285.26 126.869 284.91 145.277Z" fill="white"/>
<path d="M85.895 118.805L17.3741 187.348C17.1711 187.551 16.9681 187.709 16.7539 187.878L85.8611 118.76L85.895 118.805Z" fill="white"/>
<path d="M109.066 95.6262L97.1818 107.514L97.1367 107.48L109.032 95.5698L109.066 95.6262Z" fill="white"/>
<path d="M4.48908 177.659L6.25933 175.888C5.52643 176.621 4.96265 177.478 4.57929 178.37C4.51164 178.166 4.45526 177.963 4.41016 177.749V177.727L4.48908 177.659Z" fill="white"/>
<path d="M85.895 118.805L17.3741 187.348C17.1711 187.551 16.9681 187.709 16.7539 187.878L85.8611 118.76L85.895 118.805Z" fill="white"/>
<path d="M109.066 95.6262L97.1818 107.514L97.1367 107.48L109.032 95.5698L109.066 95.6262Z" fill="white"/>
</svg>
