<svg width="1192" height="253" viewBox="0 0 1192 253" fill="none" xmlns="http://www.w3.org/2000/svg">
<g clipPath="url(#clip0_500_21)">
<path d="M303.78 171.72V65.6H322.54V105.29H323.32C324.29 103.36 325.65 101.29 327.41 99.1C329.17 96.91 331.56 95.02 334.56 93.45C337.57 91.88 341.4 91.09 346.06 91.09C352.21 91.09 357.76 92.65 362.72 95.78C367.68 98.91 371.61 103.52 374.53 109.61C377.45 115.71 378.91 123.18 378.91 132.02C378.91 140.76 377.48 148.19 374.61 154.3C371.74 160.41 367.84 165.08 362.9 168.29C357.96 171.5 352.36 173.11 346.11 173.11C341.55 173.11 337.77 172.35 334.76 170.83C331.75 169.31 329.35 167.47 327.53 165.31C325.72 163.15 324.31 161.1 323.31 159.17H322.22V171.71H303.78V171.72ZM322.17 131.92C322.17 137.07 322.9 141.58 324.37 145.44C325.84 149.31 327.96 152.32 330.74 154.48C333.52 156.64 336.9 157.72 340.87 157.72C345.02 157.72 348.49 156.61 351.29 154.38C354.09 152.15 356.2 149.09 357.64 145.21C359.07 141.32 359.79 136.89 359.79 131.92C359.79 126.98 359.08 122.59 357.67 118.76C356.25 114.93 354.15 111.92 351.35 109.74C348.55 107.56 345.06 106.48 340.88 106.48C336.87 106.48 333.47 107.53 330.67 109.64C327.87 111.75 325.76 114.7 324.32 118.5C322.89 122.3 322.17 126.78 322.17 131.92Z" fill="black"/>
<path d="M430.16 173.27C422.18 173.27 415.3 171.6 409.51 168.27C403.72 164.94 399.28 160.2 396.17 154.07C393.06 147.94 391.51 140.71 391.51 132.38C391.51 124.19 393.07 117 396.2 110.8C399.33 104.6 403.7 99.76 409.34 96.29C414.97 92.82 421.59 91.08 429.19 91.08C434.09 91.08 438.73 91.87 443.1 93.44C447.47 95.01 451.34 97.44 454.71 100.72C458.08 104 460.73 108.17 462.66 113.23C464.59 118.29 465.56 124.31 465.56 131.29V137.04H400.32V124.4H447.58C447.55 120.81 446.77 117.6 445.25 114.79C443.73 111.98 441.61 109.76 438.9 108.13C436.19 106.51 433.04 105.69 429.44 105.69C425.61 105.69 422.24 106.61 419.34 108.46C416.44 110.31 414.18 112.73 412.58 115.71C410.97 118.7 410.15 121.97 410.12 125.53V136.57C410.12 141.2 410.97 145.16 412.66 148.46C414.35 151.76 416.72 154.28 419.76 156.03C422.8 157.78 426.36 158.65 430.43 158.65C433.16 158.65 435.63 158.26 437.84 157.48C440.05 156.7 441.97 155.56 443.59 154.03C445.21 152.51 446.44 150.63 447.27 148.38L464.78 150.35C463.67 154.98 461.58 159.01 458.48 162.45C455.39 165.89 451.44 168.55 446.64 170.43C441.84 172.33 436.34 173.27 430.16 173.27Z" fill="black"/>
<path d="M504.31 173.32C499.27 173.32 494.73 172.41 490.71 170.6C486.69 168.79 483.51 166.1 481.18 162.54C478.85 158.98 477.68 154.6 477.68 149.38C477.68 144.89 478.51 141.18 480.17 138.24C481.83 135.3 484.09 132.95 486.96 131.19C489.83 129.43 493.07 128.09 496.68 127.17C500.29 126.25 504.03 125.59 507.9 125.17C512.56 124.69 516.35 124.25 519.25 123.85C522.15 123.45 524.27 122.83 525.6 121.98C526.93 121.13 527.6 119.81 527.6 118.02V117.71C527.6 113.81 526.44 110.78 524.13 108.64C521.82 106.5 518.48 105.43 514.13 105.43C509.54 105.43 505.9 106.43 503.22 108.44C500.54 110.44 498.74 112.81 497.8 115.54L480.29 113.05C481.67 108.21 483.95 104.16 487.13 100.9C490.31 97.64 494.19 95.18 498.79 93.54C503.38 91.9 508.46 91.08 514.02 91.08C517.85 91.08 521.67 91.53 525.47 92.43C529.27 93.33 532.74 94.81 535.89 96.86C539.03 98.92 541.56 101.71 543.48 105.23C545.4 108.75 546.36 113.16 546.36 118.44V171.71H528.3V160.78H527.68C526.54 162.99 524.94 165.06 522.89 166.97C520.83 168.89 518.26 170.43 515.17 171.58C512.07 172.75 508.46 173.32 504.31 173.32ZM509.18 159.54C512.94 159.54 516.21 158.79 518.97 157.29C521.73 155.79 523.87 153.79 525.37 151.3C526.87 148.81 527.62 146.1 527.62 143.17V133.79C527.03 134.27 526.04 134.72 524.64 135.14C523.24 135.56 521.68 135.92 519.95 136.23C518.22 136.54 516.51 136.82 514.82 137.06C513.13 137.3 511.66 137.51 510.42 137.68C507.62 138.06 505.12 138.68 502.91 139.55C500.7 140.41 498.95 141.61 497.68 143.15C496.4 144.69 495.76 146.67 495.76 149.08C495.76 152.53 497.02 155.14 499.54 156.9C502.07 158.66 505.28 159.54 509.18 159.54Z" fill="black"/>
<path d="M628.15 113.17L611.05 115.04C610.57 113.31 609.73 111.69 608.54 110.17C607.35 108.65 605.75 107.42 603.75 106.49C601.75 105.56 599.29 105.09 596.39 105.09C592.49 105.09 589.21 105.94 586.57 107.63C583.93 109.32 582.62 111.52 582.66 114.21C582.63 116.52 583.48 118.41 585.22 119.86C586.96 121.31 589.86 122.5 593.9 123.44L607.48 126.34C615.01 127.96 620.62 130.54 624.29 134.06C627.97 137.58 629.83 142.2 629.86 147.89C629.82 152.9 628.37 157.31 625.48 161.13C622.6 164.95 618.6 167.93 613.49 170.07C608.38 172.21 602.5 173.28 595.87 173.28C586.13 173.28 578.29 171.23 572.35 167.14C566.41 163.05 562.87 157.34 561.73 150.01L580.02 148.25C580.85 151.84 582.61 154.55 585.31 156.38C588 158.21 591.51 159.13 595.83 159.13C600.29 159.13 603.87 158.22 606.58 156.38C609.29 154.55 610.65 152.29 610.65 149.59C610.65 147.31 609.78 145.43 608.03 143.94C606.28 142.45 603.58 141.31 599.92 140.52L586.34 137.67C578.71 136.08 573.06 133.4 569.4 129.61C565.74 125.83 563.92 121.03 563.96 115.23C563.92 110.32 565.26 106.07 567.98 102.46C570.69 98.85 574.47 96.05 579.33 94.07C584.18 92.08 589.79 91.09 596.14 91.09C605.47 91.09 612.82 93.08 618.19 97.05C623.55 101.02 626.88 106.39 628.15 113.17Z" fill="black"/>
<path d="M685.1 92.1299V106.64H639.35V92.1299H685.1ZM650.64 73.0599H669.4V147.78C669.4 150.3 669.79 152.23 670.57 153.56C671.35 154.89 672.37 155.8 673.65 156.28C674.93 156.76 676.35 157.01 677.9 157.01C679.07 157.01 680.15 156.92 681.14 156.75C682.13 156.58 682.88 156.42 683.39 156.28L686.55 170.94C685.55 171.29 684.12 171.67 682.27 172.08C680.42 172.49 678.17 172.74 675.51 172.81C670.81 172.95 666.58 172.23 662.81 170.66C659.04 169.09 656.06 166.64 653.87 163.33C651.68 160.01 650.6 155.87 650.63 150.89V73.0599H650.64Z" fill="black"/>
<path d="M707.33 77.62C706.43 77.62 705.65 77.29 705 76.64C704.34 75.98 704.02 75.21 704.02 74.31C704.02 73.41 704.35 72.63 705 71.98C705.66 71.32 706.43 71 707.33 71C708.23 71 709 71.33 709.66 71.98C710.32 72.64 710.64 73.41 710.64 74.31C710.64 75.21 710.31 75.99 709.66 76.64C709 77.29 708.22 77.62 707.33 77.62ZM705.67 171.72V92.13H708.99V171.72H705.67Z" fill="black" stroke="black" strokeWidth="3" strokeMiterlimit="10"/>
<path d="M740.9 118.24V171.72H737.58V92.13H740.9V104.77H741.32C743.19 100.62 746.25 97.31 750.52 94.82C754.79 92.33 759.67 91.09 765.16 91.09C770.48 91.09 775.18 92.25 779.25 94.56C783.33 96.87 786.52 100.07 788.84 104.15C791.15 108.23 792.31 112.92 792.31 118.24V171.72H788.99V118.24C788.99 111.19 786.78 105.46 782.36 101.04C777.94 96.62 772.2 94.41 765.16 94.41C760.46 94.41 756.29 95.43 752.65 97.47C749 99.51 746.14 102.32 744.05 105.92C741.95 109.5 740.9 113.61 740.9 118.24Z" fill="black" stroke="black" strokeWidth="3" strokeMiterlimit="10"/>
<path d="M868.17 108.92L864.85 109.75C863.78 106.3 862.28 103.42 860.37 101.12C858.45 98.82 856.11 97.1 853.35 95.94C850.59 94.78 847.37 94.2 843.71 94.2C837.35 94.2 832.21 95.82 828.27 99.05C824.33 102.28 822.36 106.54 822.36 111.82C822.36 116 823.7 119.51 826.38 122.34C829.06 125.17 833.11 127.26 838.53 128.61L850.97 131.72C856.81 133.17 861.24 135.62 864.26 139.08C867.28 142.54 868.79 146.71 868.79 151.62C868.79 155.94 867.66 159.74 865.4 163.02C863.14 166.3 860.02 168.85 856.05 170.66C852.08 172.47 847.48 173.38 842.27 173.38C835.19 173.38 829.4 171.65 824.91 168.2C820.42 164.75 817.5 159.84 816.15 153.48L819.47 152.65C820.64 158.28 823.16 162.59 827.01 165.58C830.86 168.57 835.95 170.06 842.27 170.06C849.18 170.06 854.77 168.37 859.06 164.98C863.34 161.6 865.48 157.14 865.48 151.61C865.48 147.5 864.2 144.03 861.65 141.19C859.09 138.36 855.26 136.3 850.15 135.02L837.71 131.91C831.6 130.39 826.96 127.9 823.8 124.45C820.64 121 819.06 116.78 819.06 111.81C819.06 107.63 820.1 103.98 822.19 100.85C824.28 97.72 827.18 95.28 830.9 93.52C834.61 91.76 838.89 90.88 843.73 90.88C849.88 90.88 855.01 92.39 859.12 95.41C863.21 98.44 866.23 102.94 868.17 108.92Z" fill="black" stroke="black" strokeWidth="3" strokeMiterlimit="10"/>
<path d="M894.49 77.62C893.59 77.62 892.81 77.29 892.16 76.64C891.5 75.98 891.18 75.21 891.18 74.31C891.18 73.41 891.51 72.63 892.16 71.98C892.82 71.32 893.59 71 894.49 71C895.39 71 896.16 71.33 896.82 71.98C897.48 72.64 897.8 73.41 897.8 74.31C897.8 75.21 897.47 75.99 896.82 76.64C896.16 77.29 895.39 77.62 894.49 77.62ZM892.83 171.72V92.13H896.15V171.72H892.83Z" fill="black" stroke="black" strokeWidth="3" strokeMiterlimit="10"/>
<path d="M951.69 203.22C947.23 203.22 943.12 202.62 939.36 201.43C935.59 200.24 932.35 198.46 929.62 196.09C926.89 193.72 924.85 190.78 923.51 187.26L926.62 186.02C927.83 189.13 929.63 191.71 932.04 193.77C934.44 195.82 937.33 197.36 940.69 198.38C944.06 199.4 947.73 199.91 951.7 199.91C959.99 199.91 966.45 197.73 971.08 193.36C975.71 188.99 978.02 182.33 978.02 173.38V151.82H977.61C976.23 156.24 974.17 159.93 971.44 162.88C968.71 165.83 965.55 168.05 961.96 169.51C958.37 170.98 954.6 171.71 950.66 171.71C944.44 171.71 939.03 170.04 934.44 166.68C929.85 163.33 926.29 158.68 923.77 152.74C921.25 146.8 919.99 139.92 919.99 132.12C919.99 124.24 921.23 117.2 923.72 110.98C926.21 104.76 929.75 99.86 934.34 96.26C938.93 92.67 944.37 90.87 950.66 90.87C954.94 90.87 958.85 91.74 962.37 93.49C965.89 95.23 968.95 97.72 971.54 100.95C974.13 104.18 976.15 108.01 977.6 112.43H978.01V92.13H981.33V173.38C981.33 179.91 980.14 185.39 977.75 189.83C975.37 194.27 971.96 197.61 967.54 199.86C963.13 202.1 957.84 203.22 951.69 203.22ZM950.66 168.4C956.19 168.4 961 166.93 965.09 164C969.18 161.06 972.36 156.87 974.63 151.43C976.89 145.99 978.02 139.56 978.02 132.13C978.02 124.94 976.91 118.49 974.7 112.78C972.49 107.06 969.34 102.54 965.24 99.2C961.15 95.87 956.28 94.2 950.65 94.2C945.02 94.2 940.16 95.87 936.06 99.2C931.97 102.53 928.81 107.06 926.6 112.78C924.39 118.5 923.28 124.95 923.28 132.13C923.28 139.32 924.39 145.63 926.62 151.07C928.85 156.51 932.01 160.76 936.1 163.82C940.22 166.87 945.06 168.4 950.66 168.4Z" fill="black" stroke="black" strokeWidth="3" strokeMiterlimit="10"/>
<path d="M1013.25 118.24V171.72H1009.93V65.6H1013.25V104.77H1013.67C1015.54 100.62 1018.6 97.31 1022.87 94.82C1027.14 92.33 1032.02 91.09 1037.51 91.09C1042.83 91.09 1047.53 92.25 1051.6 94.56C1055.68 96.87 1058.87 100.07 1061.19 104.15C1063.5 108.23 1064.66 112.92 1064.66 118.24V171.72H1061.34V118.24C1061.34 111.19 1059.13 105.46 1054.71 101.04C1050.29 96.62 1044.55 94.41 1037.51 94.41C1032.81 94.41 1028.64 95.43 1025 97.47C1021.35 99.51 1018.49 102.32 1016.4 105.92C1014.3 109.5 1013.25 113.61 1013.25 118.24Z" fill="black" stroke="black" strokeWidth="3" strokeMiterlimit="10"/>
<path d="M1117.71 92.1299V95.4499H1086.21V92.1299H1117.71ZM1097.82 73.0599H1101.14V154.93C1101.14 158.04 1101.83 160.71 1103.21 162.93C1104.59 165.16 1106.42 166.87 1108.7 168.06C1110.98 169.25 1113.43 169.85 1116.06 169.85C1117.06 169.85 1117.98 169.76 1118.83 169.59C1119.68 169.42 1120.55 169.16 1121.45 168.81L1122.49 171.92C1121.45 172.3 1120.43 172.6 1119.43 172.83C1118.43 173.05 1117.3 173.17 1116.06 173.17C1112.81 173.17 1109.8 172.43 1107.02 170.94C1104.24 169.46 1102.01 167.35 1100.34 164.62C1098.66 161.89 1097.83 158.66 1097.83 154.93V73.0599H1097.82Z" fill="black" stroke="black" strokeWidth="3" strokeMiterlimit="10"/>
<path d="M1189.84 108.92L1186.52 109.75C1185.45 106.3 1183.95 103.42 1182.04 101.12C1180.12 98.82 1177.78 97.1 1175.02 95.94C1172.26 94.78 1169.04 94.2 1165.38 94.2C1159.02 94.2 1153.88 95.82 1149.94 99.05C1146 102.28 1144.03 106.54 1144.03 111.82C1144.03 116 1145.37 119.51 1148.05 122.34C1150.73 125.17 1154.78 127.26 1160.2 128.61L1172.64 131.72C1178.48 133.17 1182.91 135.62 1185.93 139.08C1188.95 142.54 1190.46 146.71 1190.46 151.62C1190.46 155.94 1189.33 159.74 1187.07 163.02C1184.81 166.3 1181.69 168.85 1177.72 170.66C1173.75 172.47 1169.15 173.38 1163.94 173.38C1156.86 173.38 1151.07 171.65 1146.58 168.2C1142.09 164.75 1139.17 159.84 1137.82 153.48L1141.14 152.65C1142.31 158.28 1144.83 162.59 1148.68 165.58C1152.53 168.57 1157.62 170.06 1163.94 170.06C1170.85 170.06 1176.44 168.37 1180.73 164.98C1185.01 161.6 1187.15 157.14 1187.15 151.61C1187.15 147.5 1185.87 144.03 1183.32 141.19C1180.76 138.36 1176.93 136.3 1171.82 135.02L1159.38 131.91C1153.27 130.39 1148.63 127.9 1145.47 124.45C1142.31 121 1140.73 116.78 1140.73 111.81C1140.73 107.63 1141.77 103.98 1143.86 100.85C1145.95 97.72 1148.85 95.28 1152.57 93.52C1156.28 91.76 1160.56 90.88 1165.4 90.88C1171.55 90.88 1176.68 92.39 1180.79 95.41C1184.89 98.44 1187.91 102.94 1189.84 108.92Z" fill="black" stroke="black" strokeWidth="3" strokeMiterlimit="10"/>
<path d="M221.75 43.52L148.63 116.65L127.8 95.82L117.79 85.81L106.74 74.76L106.69 74.71L105.99 74.01C100.87 68.89 92.5801 68.89 87.4601 74.01L86.7001 74.76L66.1601 95.32L5.54012 155.93C4.89012 156.58 4.39012 157.34 4.05012 158.13C3.99012 157.95 3.94012 157.77 3.90012 157.58V157.56C1.52012 148.31 0.190116 138.64 0.0101162 128.68C-1.22988 59.51 54.3001 1.56998 123.48 0.0299751C162.73 -0.840025 198.02 16.2 221.75 43.52Z" fill="black"/>
<path d="M238.72 68.5299L169.62 137.65L159.59 147.66L153.94 153.31C151.24 156.02 146.86 156.02 144.16 153.31L86.1802 95.3199L96.7202 84.7799L107.77 95.8299L117.8 105.84L142.66 130.7C145.96 134 151.31 134 154.61 130.7L158.64 126.67L230.49 54.8199C233.52 59.1899 236.26 63.7699 238.72 68.5299Z" fill="black"/>
<path d="M87.21 116.38L15.88 187.71C13.21 182.9 10.83 177.89 8.79004 172.71L15.4 166.1C15.22 166.28 15.04 166.42 14.85 166.57L76.14 105.29L76.17 105.32L87.21 116.38Z" fill="black"/>
<path d="M96.7201 84.78L86.1801 95.32L86.1401 95.29L96.6901 84.73L96.7201 84.78Z" fill="black"/>
<path d="M76.1701 105.33L15.4001 166.1C15.2201 166.28 15.0401 166.42 14.8501 166.57L76.1401 105.29L76.1701 105.33Z" fill="black"/>
<path d="M96.7201 84.78L86.1801 95.32L86.1401 95.29L96.6901 84.73L96.7201 84.78Z" fill="black"/>
<path d="M252.67 128.8C251.39 195.66 197.21 250.54 130.36 252.61C86.4201 253.97 47.3201 232.88 23.6501 199.97L97.2401 126.4L139.11 168.27C144.62 173.78 153.53 173.78 159.03 168.27L159.08 168.22L169.62 157.66L179.63 147.65L244.84 82.4399C250.19 96.8499 252.98 112.48 252.67 128.8Z" fill="black"/>
<path d="M76.1701 105.33L15.4001 166.1C15.2201 166.28 15.0401 166.42 14.8501 166.57L76.1401 105.29L76.1701 105.33Z" fill="black"/>
<path d="M96.7201 84.78L86.1801 95.32L86.1401 95.29L96.6901 84.73L96.7201 84.78Z" fill="black"/>
<path d="M3.97015 157.51L5.54015 155.94C4.89015 156.59 4.39015 157.35 4.05015 158.14C3.99015 157.96 3.94015 157.78 3.90015 157.59V157.57L3.97015 157.51Z" fill="black"/>
<path d="M76.1701 105.33L15.4001 166.1C15.2201 166.28 15.0401 166.42 14.8501 166.57L76.1401 105.29L76.1701 105.33Z" fill="black"/>
<path d="M96.7201 84.78L86.1801 95.32L86.1401 95.29L96.6901 84.73L96.7201 84.78Z" fill="black"/>
</g>
<defs>
<clipPath id="clip0_500_21">
<rect width="1191.97" height="252.68" fill="white"/>
</clipPath>
</defs>
</svg>
